# xmcd CD database file
#
# Track frame offsets:
#	150
#	42393
#	77428
#	111788
#	141894
#	160462
#	188571
#
# Disc length: 2963 seconds
#
# Revision: 0
# Processed by: cddbd v1.5.2PL0 Copyright (c) Steve Scherf et al.
# Submitted via: CDex 1.70beta2
#
DISCID=540b9107
DTITLE=Denis Badault - H3B
DYEAR=2010
DGENRE=Jazz
TTITLE0=Des mots tombent
TTITLE1=L'arbre à quintes
TTITLE2=Jon B
TTITLE3=En rage et en ut
TTITLE4=Doubles cordes
TTITLE5=La contine des Hauts, Part 1
TTITLE6=La contine des Hauts, Part 2
EXTD=YEAR: 2010
EXTT0=
EXTT1=
EXTT2=
EXTT3=
EXTT4=
EXTT5=
EXTT6=
PLAYORDER=
